<svg xmlns="http://www.w3.org/2000/svg" viewBox="0 0 440 188" role="img" aria-label="LoudEase: 0 stars, pushed 6d ago">
<title>LoudEase: 0 stars, pushed 6d ago</title>
<style>.pulse{animation:pulse 1.6s ease-in-out infinite alternate}@keyframes pulse{from{opacity:.25}to{opacity:1}}</style>
<rect width="440" height="188" fill="#f6f8ff"/><rect x="3" y="3" width="434" height="182" rx="16" fill="#e9eefc" stroke="#b7c1e8" stroke-width="2"/><rect x="3" y="3" width="434" height="8" rx="4" fill="#7c4dff"/><rect x="26" y="30" width="61" height="61" rx="10" fill="#f6f8ff"/><rect x="34" y="38" width="9" height="9" fill="#7c4dff"/><rect x="70" y="38" width="9" height="9" fill="#7c4dff"/><rect x="43" y="38" width="9" height="9" fill="#7c4dff"/><rect x="61" y="38" width="9" height="9" fill="#7c4dff"/><rect x="52" y="38" width="9" height="9" fill="#7c4dff"/><rect x="43" y="47" width="9" height="9" fill="#7c4dff"/><rect x="61" y="47" width="9" height="9" fill="#7c4dff"/><rect x="52" y="47" width="9" height="9" fill="#7c4dff"/><rect x="43" y="56" width="9" height="9" fill="#7c4dff"/><rect x="61" y="56" width="9" height="9" fill="#7c4dff"/><rect x="43" y="65" width="9" height="9" fill="#7c4dff"/><rect x="61" y="65" width="9" height="9" fill="#7c4dff"/><rect x="34" y="74" width="9" height="9" fill="#7c4dff"/><rect x="70" y="74" width="9" height="9" fill="#7c4dff"/><rect x="43" y="74" width="9" height="9" fill="#7c4dff"/><rect x="61" y="74" width="9" height="9" fill="#7c4dff"/><rect x="52" y="74" width="9" height="9" fill="#7c4dff"/><text x="104" y="52" font-family="ui-monospace,SFMono-Regular,Menlo,Consolas,'Liberation Mono',monospace" font-size="18" font-weight="700" fill="#141b34" text-anchor="start" letter-spacing="0">LoudEase</text><text x="104" y="76" font-family="ui-monospace,SFMono-Regular,Menlo,Consolas,'Liberation Mono',monospace" font-size="13" font-weight="400" fill="#56608f" text-anchor="start" letter-spacing="0">Local audio normalization for Chrome.</text><text x="104" y="95" font-family="ui-monospace,SFMono-Regular,Menlo,Consolas,'Liberation Mono',monospace" font-size="13" font-weight="400" fill="#56608f" text-anchor="start" letter-spacing="0">AudioWorklet DSP with look-ahead</text><text x="104" y="114" font-family="ui-monospace,SFMono-Regular,Menlo,Consolas,'Liberation Mono',monospace" font-size="13" font-weight="400" fill="#56608f" text-anchor="start" letter-spacing="0">limiting.</text><text x="26" y="168" font-family="ui-monospace,SFMono-Regular,Menlo,Consolas,'Liberation Mono',monospace" font-size="14" font-weight="700" fill="#141b34" text-anchor="start" letter-spacing="0">★ 0</text><circle cx="71" cy="163" r="5" fill="#f1e05a"/><text x="83" y="168" font-family="ui-monospace,SFMono-Regular,Menlo,Consolas,'Liberation Mono',monospace" font-size="13" font-weight="400" fill="#56608f" text-anchor="start" letter-spacing="0">JavaScript</text><text x="414" y="168" font-family="ui-monospace,SFMono-Regular,Menlo,Consolas,'Liberation Mono',monospace" font-size="12" font-weight="400" fill="#56608f" text-anchor="end" letter-spacing="0">6d ago</text>
</svg>
