<svg xmlns="http://www.w3.org/2000/svg" viewBox="0 0 440 188" role="img" aria-label="Updated Again: 0 stars, pushed 3h ago">
<title>Updated Again: 0 stars, pushed 3h ago</title>
<style>.pulse{animation:pulse 1.6s ease-in-out infinite alternate}@keyframes pulse{from{opacity:.25}to{opacity:1}}</style>
<rect width="440" height="188" fill="#0b1020"/><rect x="3" y="3" width="434" height="182" rx="16" fill="#141b34" stroke="#2a3566" stroke-width="2"/><rect x="3" y="3" width="434" height="8" rx="4" fill="#7dff9b"/><rect x="26" y="30" width="61" height="61" rx="10" fill="#0b1020"/><rect x="34" y="38" width="9" height="9" fill="#7dff9b"/><rect x="70" y="38" width="9" height="9" fill="#7dff9b"/><rect x="52" y="38" width="9" height="9" fill="#7dff9b"/><rect x="34" y="47" width="9" height="9" fill="#7dff9b"/><rect x="70" y="47" width="9" height="9" fill="#7dff9b"/><rect x="52" y="47" width="9" height="9" fill="#7dff9b"/><rect x="43" y="65" width="9" height="9" fill="#7dff9b"/><rect x="61" y="65" width="9" height="9" fill="#7dff9b"/><rect x="52" y="65" width="9" height="9" fill="#7dff9b"/><rect x="34" y="74" width="9" height="9" fill="#7dff9b"/><rect x="70" y="74" width="9" height="9" fill="#7dff9b"/><text x="104" y="52" font-family="ui-monospace,SFMono-Regular,Menlo,Consolas,'Liberation Mono',monospace" font-size="18" font-weight="700" fill="#e8ecff" text-anchor="start" letter-spacing="0">Updated Again</text><text x="104" y="76" font-family="ui-monospace,SFMono-Regular,Menlo,Consolas,'Liberation Mono',monospace" font-size="13" font-weight="400" fill="#8b95c9" text-anchor="start" letter-spacing="0">A self-updating software toy: signed</text><text x="104" y="95" font-family="ui-monospace,SFMono-Regular,Menlo,Consolas,'Liberation Mono',monospace" font-size="13" font-weight="400" fill="#8b95c9" text-anchor="start" letter-spacing="0">daily capsules and local rollback.</text><text x="26" y="168" font-family="ui-monospace,SFMono-Regular,Menlo,Consolas,'Liberation Mono',monospace" font-size="14" font-weight="700" fill="#e8ecff" text-anchor="start" letter-spacing="0">★ 0</text><circle cx="71" cy="163" r="5" fill="#3178c6"/><text x="83" y="168" font-family="ui-monospace,SFMono-Regular,Menlo,Consolas,'Liberation Mono',monospace" font-size="13" font-weight="400" fill="#8b95c9" text-anchor="start" letter-spacing="0">TypeScript</text><circle class="pulse" cx="360" cy="163" r="4" fill="#7dff9b"/><text x="414" y="168" font-family="ui-monospace,SFMono-Regular,Menlo,Consolas,'Liberation Mono',monospace" font-size="12" font-weight="400" fill="#8b95c9" text-anchor="end" letter-spacing="0">3h ago</text>
</svg>
